<svg xmlns="http://www.w3.org/2000/svg" viewBox="0 0 512 512" fill="none">
  <defs>
    <linearGradient id="feather" x1="0.3" y1="0" x2="0.7" y2="1">
      <stop offset="0%" stop-color="#1e4470"/>
      <stop offset="100%" stop-color="#1B3A5C"/>
    </linearGradient>
  </defs>

  <!-- Feather — large sweeping plume curving left -->
  <path d="
    M 268 320
    C 265 280, 280 220, 310 160
    C 330 110, 355 65, 370 30
    C 372 24, 368 20, 362 22
    C 330 35, 280 80, 250 130
    C 215 195, 200 260, 210 310
    Z
  " fill="url(#feather)"/>

  <!-- Feather barbs — right side -->
  <path d="M310 160 C340 130, 370 95, 385 55 C365 85, 335 125, 308 158Z" fill="#1B3A5C" opacity="0.7"/>
  <path d="M295 195 C330 160, 365 120, 382 75 C360 110, 325 155, 293 192Z" fill="#1B3A5C" opacity="0.7"/>
  <path d="M280 230 C318 192, 355 148, 378 98 C352 140, 315 185, 278 227Z" fill="#1B3A5C" opacity="0.7"/>
  <path d="M268 265 C305 225, 345 178, 372 125 C344 170, 302 220, 266 262Z" fill="#1B3A5C" opacity="0.7"/>

  <!-- Feather barbs — left side (lighter) -->
  <path d="M250 130 C225 105, 195 88, 175 78 C190 95, 218 115, 248 132Z" fill="#2a5280" opacity="0.6"/>
  <path d="M235 170 C208 142, 178 122, 155 108 C172 128, 202 152, 233 172Z" fill="#2a5280" opacity="0.6"/>
  <path d="M222 210 C195 180, 165 158, 140 142 C158 165, 190 192, 220 212Z" fill="#2a5280" opacity="0.6"/>
  <path d="M215 250 C188 222, 160 198, 132 178 C152 202, 182 230, 213 252Z" fill="#2a5280" opacity="0.6"/>

  <!-- Central rachis (shaft) -->
  <path d="M240 318 C238 275, 258 200, 290 140 C318 85, 348 48, 366 28" stroke="#0f2a45" stroke-width="3" fill="none" stroke-linecap="round"/>

  <!-- Nib (pen tip) -->
  <path d="M240 318 L232 345 L248 325 Z" fill="#1B3A5C"/>

  <!-- Inkwell body -->
  <path d="M165 410 L165 355 Q165 330 195 330 L317 330 Q347 330 347 355 L347 410 Z" fill="#1B3A5C"/>

  <!-- Inkwell rim -->
  <ellipse cx="256" cy="332" rx="94" ry="20" fill="#1e4470"/>
  <ellipse cx="256" cy="332" rx="70" ry="14" fill="#0f2540"/>

  <!-- Ink surface -->
  <ellipse cx="256" cy="335" rx="65" ry="11" fill="#152d48"/>

  <!-- Inkwell base/pedestal -->
  <rect x="150" y="410" width="212" height="18" rx="4" fill="#1B3A5C"/>
  <rect x="138" y="425" width="236" height="22" rx="6" fill="#1B3A5C"/>

  <!-- Pedestal feet -->
  <rect x="148" y="442" width="55" height="10" rx="4" fill="#0f2540"/>
  <rect x="310" y="442" width="55" height="10" rx="4" fill="#0f2540"/>
</svg>
